<svg id="search" xmlns="http://www.w3.org/2000/svg" viewBox="0 0 224 224"><defs><style>.cls-1{fill:#fff;stroke:#ccc;stroke-miterlimit:10;stroke-width:8px;}</style></defs><title>AI files</title><circle class="cls-1" cx="112" cy="112" r="108"/><circle class="cls-1" cx="112" cy="112" r="108"/><circle class="cls-1" cx="207.88" cy="266.75" r="34.7" transform="translate(-258.73 38.12) rotate(-45)"/><path class="cls-1" d="M304,348.9a10,10,0,0,1-.1,14.1h0a10.05,10.05,0,0,1-14.1.1l-62.7-62.7c-4.2-4.2,3.3-3.3,7.2-7.2h0c3.9-3.9,2.7-11.2,7-7Z" transform="translate(-131 -187)"/><path class="cls-1" d="M241.3,314.5l-14.1-14.1c-4.2-4.2,3.3-3.3,7.2-7.2h0c3.9-3.9,2.7-11.2,7-7l14.1,14.1Z" transform="translate(-131 -187)"/><path class="cls-1" d="M192.4,282.3a21.85,21.85,0,0,1,0-31" transform="translate(-131 -187)"/></svg>