<svg id="Layer_1" data-name="Layer 1" xmlns="http://www.w3.org/2000/svg" viewBox="0 0 66.02 66.02"><defs><style>.cls-1,.cls-2{fill:none;stroke:#939598;stroke-miterlimit:10;}.cls-1{stroke-width:5px;}.cls-2{stroke-width:2px;}</style></defs><title>login</title><g id="login"><path class="cls-1" d="M232.64,44.22a30.49,30.49,0,0,1-30.51,30.51,30.51,30.51,0,0,1-30.51-30.51,30.51,30.51,0,1,1,61,0Z" transform="translate(-169.12 -11.21)"/><circle class="cls-2" cx="32.57" cy="24.52" r="10.67"/><path class="cls-2" d="M215.4,57.14l-.84,13.15a9.59,9.59,0,0,1-.32,1.94,30.54,30.54,0,0,1-25.07-.39,9.66,9.66,0,0,1-.32-3.19l.84-13.15a9.85,9.85,0,0,1,10.44-9.18l.88,0,5.2.33A9.87,9.87,0,0,1,215.4,57.14Z" transform="translate(-169.12 -11.21)"/><path class="cls-2" d="M202.13,70.85" transform="translate(-169.12 -11.21)"/><path class="cls-2" d="M198.29,52.28" transform="translate(-169.12 -11.21)"/><polyline class="cls-2" points="39.21 36.7 34.06 43.18 26.47 37.09"/></g></svg>